Run_20002
nRows=4
nColumns=164

# SIMM Motion File Header:
name Run_20002
datacolumns 164
datarows 4
otherdata 1
range 1.64000000 1.67000000
endheader
time	pelvis_tilt	pelvis_list	pelvis_rotation	pelvis_tx	pelvis_ty	pelvis_tz	hip_flexion_r	hip_adduction_r	hip_rotation_r	knee_angle_r	ankle_angle_r	hip_flexion_l	hip_adduction_l	hip_rotation_l	knee_angle_l	ankle_angle_l	lumbar_extension	lumbar_bending	lumbar_rotation	arm_flex_r	arm_add_r	arm_rot_r	elbow_flex_r	pro_sup_r	arm_flex_l	arm_add_l	arm_rot_l	elbow_flex_l	pro_sup_l	subtalar_angle_r	mtp_angle_r	subtalar_angle_l	mtp_angle_l	wrist_flex_r	wrist_dev_r	wrist_flex_l	wrist_dev_l	LASI_tx	LASI_ty	LASI_tz	RASI_tx	RASI_ty	RASI_tz	LPSI_tx	LPSI_ty	LPSI_tz	RPSI_tx	RPSI_ty	RPSI_tz	RTH1_tx	RTH1_ty	RTH1_tz	RTH2_tx	RTH2_ty	RTH2_tz	RTH3_tx	RTH3_ty	RTH3_tz	LTH1_tx	LTH1_ty	LTH1_tz	LTH2_tx	LTH2_ty	LTH2_tz	LTH3_tx	LTH3_ty	LTH3_tz	RTB1_tx	RTB1_ty	RTB1_tz	RTB2_tx	RTB2_ty	RTB2_tz	RTB3_tx	RTB3_ty	RTB3_tz	LTB1_tx	LTB1_ty	LTB1_tz	LTB2_tx	LTB2_ty	LTB2_tz	LTB3_tx	LTB3_ty	LTB3_tz	RCAL_tx	RCAL_ty	RCAL_tz	RTOE_tx	RTOE_ty	RTOE_tz	RMT5_tx	RMT5_ty	RMT5_tz	LCAL_tx	LCAL_ty	LCAL_tz	LTOE_tx	LTOE_ty	LTOE_tz	LMT5_tx	LMT5_ty	LMT5_tz	LACR_tx	LACR_ty	LACR_tz	RACR_tx	RACR_ty	RACR_tz	CLAV_tx	CLAV_ty	CLAV_tz	C7_tx	C7_ty	C7_tz	RUA1_tx	RUA1_ty	RUA1_tz	RUA2_tx	RUA2_ty	RUA2_tz	RUA3_tx	RUA3_ty	RUA3_tz	RLEL_tx	RLEL_ty	RLEL_tz	RMEL_tx	RMEL_ty	RMEL_tz	LUA1_tx	LUA1_ty	LUA1_tz	LUA2_tx	LUA2_ty	LUA2_tz	LUA3_tx	LUA3_ty	LUA3_tz	LLEL_tx	LLEL_ty	LLEL_tz	LMEL_tx	LMEL_ty	LMEL_tz	RFAsuperior_tx	RFAsuperior_ty	RFAsuperior_tz	RFAradius_tx	RFAradius_ty	RFAradius_tz	RFAulna_tx	RFAulna_ty	RFAulna_tz	LFAsuperior_tx	LFAsuperior_ty	LFAsuperior_tz	LFAradius_tx	LFAradius_ty	LFAradius_tz	LFAulna_tx	LFAulna_ty	LFAulna_tz
      1.64000000	      2.50852345	     -2.85114239	     -0.44676461	      1.23200341	      1.01340417	     -0.31707370	     14.51404646	      8.12440286	      3.95507998	    -13.85857645	      6.84339539	    -17.71299251	      5.76718305	     11.72523429	    -37.83215898	     -8.85573388	    -13.85791661	      5.79402205	     -5.93044214	    -46.43033864	    -16.14770948	     -7.38501433	    139.33293036	     98.58060305	    -20.15153322	    -17.38078185	      9.71563478	    131.27642817	     93.03643006	      0.00000000	      0.00000000	      0.00000000	      0.00000000	      0.00000000	      0.00000000	      0.00000000	      0.00000000	      1.23390597	      1.03114762	     -0.44093845	      1.23209366	      1.03927712	     -0.18230364	      1.06813675	      1.07634715	     -0.36364019	      1.06106919	      1.07541274	     -0.27040246	      1.21923614	      0.86156554	     -0.12698408	      1.27894881	      0.77232402	     -0.14531148	      1.24376368	      0.63048339	     -0.16993973	      1.15877773	      0.86972624	     -0.48894792	      1.19112565	      0.73271604	     -0.45137359	      1.09303205	      0.63180823	     -0.45381153	      1.33537802	      0.38050918	     -0.25154486	      1.30128020	      0.27165787	     -0.21226047	      1.33073563	      0.20690388	     -0.28104864	      0.95790467	      0.38242414	     -0.38132449	      0.88934514	      0.37322347	     -0.42517378	      0.83779439	      0.31122410	     -0.36857715	      1.22890466	      0.09141856	     -0.28361967	      1.45902256	      0.12482218	     -0.30726549	      1.45116447	      0.08664673	     -0.23566531	      0.67417508	      0.33435988	     -0.36114168	      0.77249586	      0.11888181	     -0.31101185	      0.73715686	      0.11670016	     -0.39476617	      1.23169457	      1.57107924	     -0.46257090	      1.19663263	      1.54143737	     -0.13436246	      1.25605925	      1.48403631	     -0.26810062	      1.14935611	      1.57810679	     -0.30739005	      1.09878940	      1.45044905	     -0.05774941	      1.03434567	      1.46339874	     -0.08130153	      1.01829611	      1.40059806	     -0.04520663	      0.95749758	      1.33791567	     -0.03425331	      0.93562007	      1.34209017	     -0.12768145	      1.19049088	      1.47102798	     -0.55734393	      1.11030057	      1.42614645	     -0.56153661	      1.14817525	      1.35761733	     -0.60053390	      1.13018886	      1.28630793	     -0.61676765	      1.07145923	      1.27688766	     -0.54484762	      1.04396443	      1.32058732	     -0.04441184	      1.19683785	      1.29433589	     -0.11835556	      1.17583287	      1.23004484	     -0.09467854	      1.20552764	      1.26779802	     -0.57332003	      1.31648404	      1.28919398	     -0.43235340	      1.32370008	      1.21920920	     -0.44683080
      1.65000000	      3.02243747	     -2.77260960	     -0.39859977	      1.23226815	      1.00680842	     -0.31722570	     14.89236329	      8.19917783	      3.24844140	    -17.54753476	      5.61470635	    -16.49171272	      5.51081213	      9.87711496	    -42.26715627	     -7.54935436	    -14.39244670	      5.73620916	     -5.54247339	    -44.35894360	    -16.31955515	     -6.76440275	    138.11740374	     98.25193060	    -21.22185119	    -16.68325998	      8.78972025	    129.55461290	     93.40445206	      0.00000000	      0.00000000	      0.00000000	      0.00000000	      0.00000000	      0.00000000	      0.00000000	      0.00000000	      1.23438159	      1.02328149	     -0.44073715	      1.23286077	      1.03206813	     -0.18213933	      1.06761770	      1.06899033	     -0.36279109	      1.06125003	      1.06788726	     -0.26900260	      1.22082573	      0.85553317	     -0.12940554	      1.28098642	      0.76809427	     -0.14936039	      1.24837182	      0.62474250	     -0.17132712	      1.16014750	      0.86349479	     -0.48924624	      1.19564994	      0.72658290	     -0.45432056	      1.10017915	      0.62383891	     -0.45645194	      1.33414478	      0.37278460	     -0.25287796	      1.29542665	      0.26537323	     -0.21436655	      1.32273392	      0.19952462	     -0.28316049	      0.96424637	      0.37772217	     -0.38601753	      0.89463725	      0.37259054	     -0.42873915	      0.84114181	      0.31186343	     -0.37314114	      1.21482454	      0.09355798	     -0.28553833	      1.44724990	      0.10778774	     -0.30758238	      1.43662603	      0.07080330	     -0.23557546	      0.67760321	      0.34133313	     -0.36348541	      0.77039732	      0.12254162	     -0.31780252	      0.73390318	      0.12257894	     -0.40106799	      1.23059101	      1.56184044	     -0.46278862	      1.19798592	      1.53206620	     -0.13315203	      1.25722690	      1.47526053	     -0.26767164	      1.15050181	      1.56972242	     -0.30611441	      1.10222492	      1.43779927	     -0.05570641	      1.03696644	      1.44936194	     -0.07764150	      1.02319018	      1.38532956	     -0.04295750	      0.96427945	      1.32168198	     -0.03185794	      0.94086447	      1.32601273	     -0.12470059	      1.18610321	      1.46223262	     -0.55601005	      1.10528677	      1.41840008	     -0.55869473	      1.14126232	      1.34935240	     -0.59892995	      1.12192068	      1.27863212	     -0.61499658	      1.06502563	      1.26973465	     -0.54161995	      1.05060624	      1.30565903	     -0.04283137	      1.20324144	      1.28147247	     -0.11813591	      1.18338011	      1.21703621	     -0.09423244	      1.19781504	      1.25696167	     -0.57395601	      1.31321829	      1.27242842	     -0.43548777	      1.31772856	      1.20254491	     -0.45158306
      1.66000000	      3.48208845	     -2.91143048	     -0.32114755	      1.23169165	      0.99954572	     -0.31714738	     15.66622188	      8.57725103	      2.56143422	    -21.81637535	      5.49077147	    -14.98014094	      4.85399770	      7.96400235	    -46.93401527	     -6.17586010	    -14.96455677	      5.92569626	     -5.03442371	    -42.15555805	    -16.41073802	     -6.19710535	    136.71424020	     98.03823057	    -22.12866334	    -15.91157955	      7.77100236	    127.61109640	     93.76696453	      0.00000000	      0.00000000	      0.00000000	      0.00000000	      0.00000000	      0.00000000	      0.00000000	      0.00000000	      1.23417013	      1.01493554	     -0.44070885	      1.23300003	      1.02439215	     -0.18209378	      1.06638182	      1.06096560	     -0.36187552	      1.06079148	      1.06010403	     -0.26777103	      1.22226196	      0.84995068	     -0.13137289	      1.28268413	      0.76379832	     -0.15156661	      1.25310051	      0.61946116	     -0.17237932	      1.16106923	      0.85639078	     -0.48933050	      1.19993864	      0.71969187	     -0.45759260	      1.10745467	      0.61517438	     -0.45922016	      1.33393038	      0.36644631	     -0.25489664	      1.29090189	      0.26047168	     -0.21728528	      1.31474921	      0.19383031	     -0.28618247	      0.97141828	      0.37252423	     -0.39039021	      0.90107143	      0.37117432	     -0.43225125	      0.84574625	      0.31193564	     -0.37775815	      1.20009168	      0.09586974	     -0.28780187	      1.43392752	      0.09368752	     -0.30921680	      1.42167307	      0.05999646	     -0.23610169	      0.68271345	      0.34764506	     -0.36549227	      0.77004511	      0.12560104	     -0.32511587	      0.73246831	      0.12827838	     -0.40786349	      1.22942322	      1.55223004	     -0.46333777	      1.19948020	      1.52189488	     -0.13168764	      1.25855840	      1.46568258	     -0.26725928	      1.15180934	      1.56054685	     -0.30485205	      1.10592308	      1.42413229	     -0.05367659	      1.03990043	      1.43417730	     -0.07384627	      1.02849740	      1.36894709	     -0.04062250	      0.97162469	      1.30431435	     -0.02950997	      0.94658681	      1.30879734	     -0.12169808	      1.18157691	      1.45228399	     -0.55471501	      1.09991849	      1.40979189	     -0.55539502	      1.13393112	      1.34023049	     -0.59667372	      1.11319326	      1.27030766	     -0.61261794	      1.05819777	      1.26180789	     -0.53759586	      1.05779130	      1.28961228	     -0.04124138	      1.21003033	      1.26716461	     -0.11800386	      1.19111672	      1.20258180	     -0.09369077	      1.18961707	      1.24536986	     -0.57433674	      1.30959104	      1.25420346	     -0.43911650	      1.31130765	      1.18463383	     -0.45682924
      1.67000000	      3.92766975	     -3.32309421	     -0.32125627	      1.23021590	      0.99200031	     -0.31676371	     16.72301910	      9.35232742	      1.98961164	    -26.61246705	      6.85451474	    -13.27275709	      3.81904113	      6.08977567	    -51.72595215	     -4.62633706	    -15.64256129	      6.40893249	     -4.28499622	    -39.79325730	    -16.44225343	     -5.70499565	    135.07753896	     97.87991697	    -22.82827621	    -15.02853617	      6.66279352	    125.37434374	     94.15012662	      0.00000000	      0.00000000	      0.00000000	      0.00000000	      0.00000000	      0.00000000	      0.00000000	      0.00000000	      1.23318979	      1.00663184	     -0.44073707	      1.23237616	      1.01676580	     -0.18211421	      1.06445755	      1.05270569	     -0.36141801	      1.05955313	      1.05221138	     -0.26762513	      1.22304739	      0.84514723	     -0.13185002	      1.28388059	      0.75952297	     -0.15088726	      1.25757067	      0.61503405	     -0.17331812	      1.16166994	      0.84846171	     -0.48937073	      1.20401274	      0.71256796	     -0.46088597	      1.11492969	      0.60601613	     -0.46176257	      1.33398472	      0.36178161	     -0.25815827	      1.28745396	      0.25738782	     -0.22060972	      1.30563520	      0.19025829	     -0.28988477	      0.97953846	      0.36732654	     -0.39415662	      0.90890111	      0.36907310	     -0.43553314	      0.85173060	      0.31172056	     -0.38185519	      1.18419736	      0.09806870	     -0.28998615	      1.41852946	      0.08442064	     -0.31223240	      1.40560313	      0.05580084	     -0.23758387	      0.68949162	      0.35330514	     -0.36741931	      0.77185592	      0.12836670	     -0.33275535	      0.73360047	      0.13389843	     -0.41503114	      1.22831083	      1.54245558	     -0.46442727	      1.20116364	      1.51128863	     -0.12983368	      1.26006428	      1.45599482	     -0.26687228	      1.15325801	      1.55120207	     -0.30361886	      1.10981885	      1.40949495	     -0.05168918	      1.04306420	      1.41792648	     -0.06993086	      1.03418313	      1.35142938	     -0.03839419	      0.97946229	      1.28598634	     -0.02729513	      0.95282378	      1.29059548	     -0.11883358	      1.17670819	      1.44153766	     -0.55333818	      1.09419859	      1.40047223	     -0.55172763	      1.12623435	      1.33031257	     -0.59358198	      1.10406716	      1.26155717	     -0.60956071	      1.05126844	      1.25333929	     -0.53287956	      1.06549842	      1.27244943	     -0.03964237	      1.21721652	      1.25144945	     -0.11794632	      1.19906006	      1.18670272	     -0.09311141	      1.18094921	      1.23316591	     -0.57443752	      1.30560731	      1.23461467	     -0.44328186	      1.30438991	      1.16554217	     -0.46266412
